# xmcd
#
# Track frame offsets:
#	150
#	57673
#	92761
#	140866
#	187614
#	232567
#
# Disc length: 3477 seconds
#
# Revision: 1
# Processed by: cddbd v1.5.2PL0 Copyright (c) Steve Scherf et al.
# Submitted via: audiograbber 1.83.01
#
DISCID=470d9306
DTITLE=Grateful Dead - 78-08-30 Red Rocks Amphitheatre, Morrison CO
DYEAR=1900
DGENRE=
TTITLE0=Drums
TTITLE1=Space
TTITLE2=If I Had The World To Give
TTITLE3=Iko Iko
TTITLE4=Around and Around
TTITLE5=US Blues
EXTD=
EXTT0=
EXTT1=
EXTT2=
EXTT3=
EXTT4=
EXTT5=
PLAYORDER=
